# xmcd
#
# Track frame offsets: 
#        150
#        12347
#        25145
#        37768
#        51736
#        63487
#        77940
#        90808
#        100926
#        112546
#        124302
#        138325
#
# Disc length: 2074 seconds
#
# Revision: 0
# Processed by: cddbd v1.5.2PL0 Copyright (c) Steve Scherf et al.
# Submitted via: ExactAudioCopy v0.95b2
#
DISCID=9108180c
DTITLE=Wynn Stewart - After the Storm
DYEAR=1976
DGENRE=Country
TTITLE0=After the Storm
TTITLE1=Wishful Thinking
TTITLE2=Don't Monkey With My Widder
TTITLE3=It Always Rains on Me
TTITLE4=Big, Big Love
TTITLE5=Sing a Sad Song
TTITLE6=Lonely Rain
TTITLE7=Playboy
TTITLE8=It's Such a Pretty World Today
TTITLE9=I'm Gonna Kill You
TTITLE10=Just Now Thought of You
TTITLE11=Seasons of My Heart
EXTD=
EXTT0=
EXTT1=
EXTT2=
EXTT3=
EXTT4=
EXTT5=
EXTT6=
EXTT7=
EXTT8=
EXTT9=
EXTT10=
EXTT11=
PLAYORDER=
